<svg xmlns="http://www.w3.org/2000/svg" width="69" height="82" viewBox="0 0 69 82"><path fill="#fff" d="M42.82 81.06a5.2 5.2 0 0 0 5.08-5.07V64.16h3.39c2.04 0 3.4-1.35 3.4-3.38V27H14v33.78c0 2.03 1.36 3.38 3.39 3.38h3.4v11.83a5.2 5.2 0 0 0 5.08 5.07 5.2 5.2 0 0 0 5.08-5.07V64.16h6.79v11.83a5.2 5.2 0 0 0 5.08 5.07zm20.26-20.28a5.19 5.19 0 0 0 5.08-5.06V32.06A5.2 5.2 0 0 0 63.08 27 5.2 5.2 0 0 0 58 32.06v23.66a5.2 5.2 0 0 0 5.08 5.06zm-58 0a5.19 5.19 0 0 0 5.08-5.06V32.06A5.2 5.2 0 0 0 5.08 27 5.2 5.2 0 0 0 0 32.06v23.66a5.2 5.2 0 0 0 5.08 5.06zM48.25.51L43.7 5.03l-.21.21a20.19 20.19 0 0 0-9.1-2.03h-.1c-3.37.01-6.39.68-9.09 2.03l-.21-.21L20.44.51a1.63 1.63 0 0 0-2.37 0 1.62 1.62 0 0 0 0 2.36l4.4 4.39a18.2 18.2 0 0 0-3.82 3.42 19.76 19.76 0 0 0-4.62 11.74l-.01.14-.02.91h40.69l-.02-.91-.01-.14a19.84 19.84 0 0 0-4.63-11.74 17.71 17.71 0 0 0-3.82-3.42l4.4-4.39c.68-.68.68-1.68 0-2.36a1.62 1.62 0 0 0-2.36 0zM23.32 15.03a2.54 2.54 0 1 1 5.07.01 2.54 2.54 0 0 1-5.07-.01zm16.96 0c0-1.4 1.14-2.53 2.54-2.53a2.54 2.54 0 1 1 0 5.07 2.54 2.54 0 0 1-2.54-2.54z"/></svg>