<svg xmlns="http://www.w3.org/2000/svg" width="68" height="82" viewBox="0 0 68 82"><path fill="#fff" d="M4.43 30.57c-6.88 11.88-2.5 29.92 5.11 40.85 3.8 5.47 7.64 10.37 12.91 10.37h.3c2.48-.1 4.27-.86 6-1.59 1.94-.82 3.95-1.68 7.1-1.68 2.99 0 4.9.83 6.75 1.62 1.83.79 3.7 1.6 6.48 1.55 5.93-.11 9.58-5.41 12.79-10.08a44.9 44.9 0 0 0 5.61-11.42l.02-.07a.68.68 0 0 0-.36-.82l-.04-.02c-1.05-.42-10.22-4.47-10.31-15.5-.09-8.96 6.87-13.7 8.27-14.56l.07-.04c.15-.1.25-.25.29-.43a.68.68 0 0 0-.1-.5c-4.81-7-12.18-8.06-15.15-8.19a14.4 14.4 0 0 0-1.32-.06c-3.49 0-6.83 1.31-9.51 2.36-1.85.73-3.45 1.36-4.55 1.36-1.24 0-2.85-.64-4.71-1.37-2.49-.99-5.31-2.1-8.3-2.1h-.21c-6.95.1-13.52 4.06-17.14 10.32z"/><path fill="#fff" d="M50.79 1c-4.21.17-9.26 2.75-12.27 6.26-2.57 2.96-5.07 7.89-4.41 12.85.04.31.29.55.61.58.28.02.57.03.86.03 4.11 0 8.55-2.26 11.58-5.91 3.19-3.85 4.81-8.79 4.32-13.22a.67.67 0 0 0-.69-.59z"/></svg>