<svg xmlns="http://www.w3.org/2000/svg" width="34" height="26" viewBox="0 0 34 26"><path d="M22.61 3.85v-1.8C22.61.93 21.7 0 20.6 0h-6.21c-1.09 0-2.01.93-2.01 2.05v1.8H2.37A2.4 2.4 0 0 0 0 6.28v15.65a2.4 2.4 0 0 0 2.37 2.43H3.4v.48c0 .3.25.56.55.56h2.44c.3 0 .55-.26.55-.56v-.48H26.3v.48c0 .3.26.56.55.56h2.45c.29 0 .55-.26.55-.56v-.48h1.02a2.4 2.4 0 0 0 2.37-2.43V6.28a2.4 2.4 0 0 0-2.37-2.43zM1.1 19.84V8.41a3.98 3.98 0 0 0 3.36-3.44h1.75v18.3H4.46a3.96 3.96 0 0 0-3.36-3.43zM8.4 4.97v18.3H7.31V4.97zm15.34 0v6.31l-1.38 3.25c-.11.3 0 .6.29.75l1.13.52v7.51H9.53V4.97zm2.2 10.57l-1.1-.49-1.1-.48-.18-.11.18-.41 1.1-2.54 1.1.48 1.09.49.7.3-.7 1.6-.58 1.38zm-1.1-10.57h1.1v5.79l-1.1-.49zm1.1 11.77v6.53h-1.1v-7.02zm1.09 6.53v-6.31l.22-.22 1.68-4c.11-.3 0-.6-.29-.75L27 11.24V4.97h1.75a3.98 3.98 0 0 0 3.36 3.44v11.43a3.95 3.95 0 0 0-3.32 3.43zm5.12-16.99v1a2.9 2.9 0 0 1-2.27-2.31h.99c.69 0 1.28.6 1.28 1.31zM14.39 1.16h6.21c.51 0 .92.41.92.93v1.8h-8.04v-1.8c0-.52.4-.93.91-.93zM2.37 4.97h.99A2.9 2.9 0 0 1 1.1 7.28v-1c0-.71.58-1.31 1.27-1.31zm-1.27 17v-1.01a2.9 2.9 0 0 1 2.26 2.31h-.99a1.3 1.3 0 0 1-1.27-1.3zm29.77 1.3h-.99a2.9 2.9 0 0 1 2.27-2.31v1.01c0 .71-.59 1.3-1.28 1.3z"/><path d="M18.02 7.02c-.14-.03-.29-.03-.4.04l-7.34 3.77a.5.5 0 0 0-.26.34c-.03.15-.03.3.04.41l2.08 4.19a.5.5 0 0 0 .33.26c.07 0 .11.03.18.03a.6.6 0 0 0 .26-.07l7.34-3.81a.62.62 0 0 0 .26-.75l-2.16-4.14a.47.47 0 0 0-.33-.27zm-6.75 4.56l6.35-3.29 1.61 3.22-6.36 3.28zm3.73 8a2.55 2.55 0 0 0 2.52 2.58 2.55 2.55 0 0 0 2.52-2.58A2.53 2.53 0 0 0 17.52 17 2.55 2.55 0 0 0 15 19.58zm1.1.03c0-.78.65-1.45 1.42-1.45.8 0 1.43.67 1.43 1.45 0 .79-.63 1.46-1.43 1.46-.8 0-1.42-.67-1.42-1.46zM2 12.09c0 1.16.91 2.09 2.05 2.09 1.13 0 2.04-.93 2.04-2.09 0-1.16-.91-2.09-2.04-2.09C2.91 10 2 10.93 2 12.09zm1.1.04c0-.52.43-.97.95-.97.51 0 .95.45.95.97s-.44.97-.95.97a.97.97 0 0 1-.95-.97z"/></svg>