<svg xmlns="http://www.w3.org/2000/svg" width="34" height="34" viewBox="0 0 34 34"><path d="M5.57 15a.56.56 0 0 0-.57.57v5.66c0 .32.25.57.57.57h3.96c.32 0 .57-.25.57-.57v-5.66a.56.56 0 0 0-.57-.57zm.56 5.67v-4.54h2.84v4.54zM15.57 15a.56.56 0 0 0-.57.57v5.66c0 .32.25.57.57.57h3.96c.32 0 .57-.25.57-.57v-5.66a.56.56 0 0 0-.57-.57zm.56 5.67v-4.54h2.84v4.54zM15.57 24a.56.56 0 0 0-.57.57v5.66c0 .32.25.57.57.57h3.96c.32 0 .57-.25.57-.57v-5.66a.56.56 0 0 0-.57-.57zm.56 5.67v-4.54h2.84v4.54zM24.57 15a.56.56 0 0 0-.57.57v5.66c0 .32.25.57.57.57h3.96c.32 0 .57-.25.57-.57v-5.66a.56.56 0 0 0-.57-.57zm.56 5.67v-4.54h2.84v4.54zM5.57 24a.56.56 0 0 0-.57.57v5.66c0 .32.25.57.57.57h3.96c.32 0 .57-.25.57-.57v-5.66a.56.56 0 0 0-.57-.57zm.56 5.67v-4.54h2.84v4.54zM24.57 24a.56.56 0 0 0-.57.57v5.66c0 .32.25.57.57.57h3.96c.32 0 .57-.25.57-.57v-5.66a.56.56 0 0 0-.57-.57zm.56 5.67v-4.54h2.84v4.54z"/><path d="M31.73 13.6h.57c.31 0 .56-.26.56-.57V10.2a.57.57 0 0 0-.56-.57h-.57V7.37a.56.56 0 0 0-.57-.57h-1.13V.57a.56.56 0 0 0-.57-.57H4.53a.56.56 0 0 0-.56.57V6.8H2.83a.56.56 0 0 0-.56.57v2.26H1.7a.58.58 0 0 0-.57.57v2.83c0 .31.26.57.57.57h.57v19.26H0v1.13h34v-1.13h-2.27zM28.9 1.13V6.8H5.1V1.13zm1.7 6.8v1.7H3.4v-1.7zM3.4 32.86V13.6h27.2v19.26zm-1.13-20.4v-1.69h29.46v1.69z"/><path d="M16.22 2.54c-.16-.17-.36-.3-.59-.4a2.06 2.06 0 0 0-.76-.14c-.28 0-.53.05-.76.14a1.76 1.76 0 0 0-.97.99 2.04 2.04 0 0 0 0 1.51 1.76 1.76 0 0 0 .97.99c.23.09.48.14.76.14s.53-.05.76-.14a1.76 1.76 0 0 0 .97-.99 2.14 2.14 0 0 0 0-1.51 1.58 1.58 0 0 0-.38-.59zm-.5 2.3c-.1.11-.22.19-.36.25a1.3 1.3 0 0 1-.49.09 1.3 1.3 0 0 1-.49-.09 1.01 1.01 0 0 1-.36-.25 1.11 1.11 0 0 1-.24-.41 1.82 1.82 0 0 1 0-1.09 1.11 1.11 0 0 1 .6-.67c.15-.06.31-.09.49-.09s.34.03.49.09a1.04 1.04 0 0 1 .59.67c.06.16.08.34.08.54 0 .21-.02.39-.08.55-.05.16-.13.3-.23.41zM11.42 2v1.59H9.69V2H9v3.69h.69V4.08h1.73v1.61h.69V2zm12.27 3.12V2H23v3.69h2.16v-.57z"/><path d="M16 2v.56h1.11v3.13h.69V2.56h1.11V2zm6.33.55V2H20v3.69h2.33v-.55h-1.64V4.1h1.29v-.53h-1.29V2.55z"/></svg>