<svg xmlns="http://www.w3.org/2000/svg" width="15" height="25" viewBox="0 0 15 25"><path fill="#fff" d="M5.94 17.71a9.22 9.22 0 0 1-5.42-2.16c-.62-.59-.68-1.26-.19-1.96.42-.59 1.12-.75 1.85-.41.15.06.28.15.41.24a8.14 8.14 0 0 0 8.92.08c.26-.2.54-.37.87-.45.63-.16 1.22.07 1.56.62.39.62.38 1.23-.09 1.72a7.27 7.27 0 0 1-2.6 1.66c-.93.36-1.94.53-2.94.65l.31.34 4.1 4.07c.46.46.56 1.04.3 1.57-.28.59-.9.98-1.51.94a1.5 1.5 0 0 1-.96-.49c-1.03-1.02-2.08-2.03-3.09-3.07-.29-.3-.43-.25-.69.02a231.67 231.67 0 0 1-3.15 3.12c-.47.47-1.04.55-1.59.29a1.62 1.62 0 0 1-.93-1.47c.02-.4.22-.71.5-.99l4.04-4 .3-.32M6.99 4.03a2.91 2.91 0 0 0-2.94 2.93A2.92 2.92 0 0 0 7 9.84a2.9 2.9 0 1 0-.01-5.81zM1 6.92a5.98 5.98 0 0 1 11.97.09 5.96 5.96 0 0 1-6.03 5.85A5.97 5.97 0 0 1 1 6.92z"/></svg>