<svg xmlns="http://www.w3.org/2000/svg" width="44" height="33" viewBox="0 0 44 33"><path d="M20.05 12.97c-.17.28.1.33.42.23 1.47-.45 2.68-.63 3.69-.61.86-1.1 1.83-2.17 2.91-3.2a9.4 9.4 0 0 0-4-.3c-1.1 1.2-2.1 2.5-3.02 3.88zM21.53 16c1.1 0 .67.89-.96 2-1.64 1.1-3.86 1.99-4.96 1.99s-.67-.89.96-1.99c1.64-1.11 3.86-2 4.96-2zm15.9 2l-.43.3.02-.13zm-.43.63l.89-.63-.05.28z"/><path d="M36 18.53c.89-.53 1.13.09 1.79.17.22.03.49-.16.58-.63.16-.57.5-.91 1.04-1.07-.81.43-1.13 1.36-.55 2.07l-1.41.77c.2-.81-.23-1.58-1.45-1.31z"/><path d="M39.05 17c.53-.02.86.4.73.94a1.3 1.3 0 0 1-.25.48l1-.53.13.28-26.53 14.21-.13-.28 8.39-4.5c-.18.05-.36.08-.54.08-1.15.03-1.83-.89-1.52-2.04a2.97 2.97 0 0 1 2.61-2.12c1.14-.02 1.82.89 1.52 2.04a2.84 2.84 0 0 1-.93 1.43l5.74-3.07h-.09c-.99.02-1.59-.77-1.32-1.77.26-1 1.27-1.82 2.27-1.84.99-.02 1.58.77 1.32 1.77-.09.34-.27.67-.51.95l4.07-2.19-.02.01c-.61.02-.98-.47-.83-1.08.15-.62.77-1.14 1.38-1.16.61-.03.99.46.83 1.08a1.4 1.4 0 0 1-.31.59l2.5-1.33c-.52 0-.84-.41-.71-.94.13-.54.67-.99 1.2-1.01z"/><path d="M26.95 22l-.95.65.05-.29zm-1.95.35L26.96 21l-.11.61z"/><path d="M22 23.23c1.97-1.13 2.46.25 3.91.45.5.06 1.08-.34 1.29-1.37A3.18 3.18 0 0 1 29.52 20c-1.79.91-2.52 2.95-1.26 4.52l-3.13 1.64c.47-1.78-.46-3.48-3.13-2.93zM24.12 18c.36 0 .22.29-.31.65-.53.36-1.25.65-1.61.65-.36 0-.22-.29.31-.65a3.71 3.71 0 0 1 1.61-.65zm3.47-4c.61 0 .37.49-.53 1.1-.9.6-2.12 1.1-2.72 1.1-.61 0-.37-.5.53-1.1.9-.61 2.11-1.1 2.72-1.1zM34 8l2.97.19.06 4.31-2.92.28zm-8-2.93c1.78-1.47 3.95-1.14 7.05-.67l.76.11h.01l8.21 1.27-4.49-.38-3.77-.58L33 4.7c-2.21-.33-3.93-.59-5.35-.17-.78.23-1.2.41-1.65.54zm2-3.22l8.09 1.84-.26-.56-.16-.03.08-.4.1.02.54-1.23h-.12l.17-.27-.98.02c-.32 0-.58.03-.78.16a.95.95 0 0 0-.42.54l-.12-.03c.07-.24.23-.46.48-.62.21-.14.5-.22.84-.23L37.88 1c.43-.01.7.05.89.19.2.13.32.33.43.58l-.12.05a1.2 1.2 0 0 0-.38-.53c-.17-.11-.42-.12-.81-.11l-1.12.03-.16.28h-.14l-.55 1.24.1.02-.07.35.29.63 6.86 1.56.07.37L30.7 3.42A12.38 12.38 0 0 0 28 1.85zM5 14.1l.14-.1z"/><path d="M21.88 21.69c-1.28 1.89-3.06 5.07-3.83 5.67-.39.28-.24.92-.47 1.23-3.83 1.2-7.8 1.88-11.58 1.4-.65-.12-1.63-.18-1.15-1.36.2-.68-.19-1.37-1.52-2.1-3.26-1.9-3.47-5.21-1.37-9.61-.76 1.88-.53 3.25.86 3.66 4.52.96 10.08-2.93 15.07-8.07-2.08.39-4.15.76-6.19.94l-.35-.5c2.18-.14 4.61-.5 7.05-1.01l.09-.04.84-.91c1.86-2 3.63-3.91 5.37-5.26l.21-.16-.24-.1a17.58 17.58 0 0 0-4.87-1.29 29.08 29.08 0 0 0-6.35-.02l-.07.02a32.99 32.99 0 0 0-4.66 3.73 27.66 27.66 0 0 0-3.68 4.28l-.12.16.19.07c.32.12.67.21 1.04.29l-.63.44a11.3 11.3 0 0 1-1-.27c-.53.65-1 1.28-1.39 1.88v-.01l-.01.01-.37.61c-2.47 3.99-4.61 8.46-.18 11.2.58.51 2.38 1.04 1.7 2.42-.2.49-.11.87.26 1.15l-2.84 1.23.13.29 3.04-1.32c.26.12.6.21 1 .28 4.09.29 8.17-.27 12.26-1.45.35-.27.08-1.11.54-1.56 1.27-1.03 2.29-3.51 3.44-5.27.34-.45.43-.5.86-.62.65.16 10.71-3.49 16.06-5.24-5.44 1.58-15.41 4.86-16.31 4.74-.32.09-.53.08-.83.47zM5.42 13.41l-.23.15.49.14.19-.15.18.05-.3.25-.03.02-.04-.01-.69-.19-.16-.05.13-.09.27-.18zm6.54.4l.08.12h-.14l-.66.03h-.05l-.02-.04-.14-.23.18-.01.07.12.47-.02-.09-.11.19-.01zm-5.58-.49l.57-.47c1.04.15 2.23.19 3.53.14h.13l.31.52c-1.54.09-3.06.06-4.54-.19zm2.17-2.06l-.03.05-.05.09-1.41 1.16-.33-.05zm1.06-.37l.06-.08 1.29 1.85-.36.02-1.04-1.72zm1.49 2.61l-.32-.52.39-.02.36.51-.43.03zM8.94 8.13a32.74 32.74 0 0 1 4.58-3.67c2.35-.22 4.42-.2 6.24.03 1.72.22 3.22.61 4.54 1.16-1.69 1.35-3.4 3.2-5.2 5.13l-.81.87c-2.49.51-4.95.87-7.15 1l-1.38-1.98.81-1.23-.07-.05-1.01 1.4-1.11 1.68.08.05 1.01-1.43.95 1.59a19.9 19.9 0 0 1-3.15-.1l.97-.79-.39.66.09.06.74-1.16 1.05-1.81-.06-.05-.91 1.45-2.25 1.53a7.7 7.7 0 0 1-1.1-.27 27.33 27.33 0 0 1 3.53-4.07zm-2.58 4.63l.38.06-.56.47-.46-.09z"/><path d="M8.79 12.05l.03-.05L7 13.24l.34.05 1.4-1.16zM10.1 11l-.06.09-.04.06 1.04 1.72.36-.02zM14 3.73c4.24-.63 7.64-.07 11.38 1.3 1.77-1.38 2.95-1.93 4.01-2.04C24.63-.05 19.46.55 14 3.73zm17.65 1.52L29.12 5l.65 10.71c0 1.17-.26 1.9-.77 2.6l2.55-.59c.52-.27.68-.82.65-1.59l-.55-10.88zm-2 .34l1.51.12.31 6.07-1.49.12zM37 8l1.88.12.07 3.97-1.88.18zm2 0l1.49.09.05 3.7-1.48.14zm2 0l.89.06.06 3.5-.89.09zm1 0l.74.05.01 3.35-.7.06zM27.55 9.58l.7-.65c1.07-1.1-.53-3.25-1.21-2.89-1.09.84-2.1 1.76-3.04 2.75 1.3 0 2.46.31 3.55.79z"/></svg>