<svg xmlns="http://www.w3.org/2000/svg" width="279" height="210" viewBox="0 0 279 210"><path fill="#fff" d="M123.33 164a7.36 7.36 0 0 0-7.33 7.37v31.11a7.36 7.36 0 0 0 7.33 7.37h45.26c4.04 0 7.32-3.3 7.32-7.37v-31.1a7.34 7.34 0 0 0-7.31-7.38zm45.27 42.48h-45.27a3.99 3.99 0 0 1-3.98-4v-31.1c0-2.21 1.78-4 3.98-4h45.26a4 4 0 0 1 3.98 4v31.1h.01a4 4 0 0 1-3.98 4z"/><path fill="#fff" d="M153.87 186.16l14.66-13.21a1.7 1.7 0 0 0 .12-2.38 1.68 1.68 0 0 0-2.37-.13l-20.2 18.24-3.95-3.54a.08.08 0 0 1-.02-.04c-.09-.08-.17-.16-.27-.23l-16.04-14.44a1.69 1.69 0 0 0-2.24 2.52l14.83 13.32-14.76 13.9a1.7 1.7 0 0 0 1.15 2.92c.41 0 .82-.15 1.14-.45l14.99-14.1 4.06 3.66c.33.28.72.42 1.12.42.4 0 .8-.15 1.11-.44l4.18-3.76 14.9 14.23a1.66 1.66 0 0 0 2.37-.06 1.7 1.7 0 0 0-.06-2.38zM56.81 23a29.3 29.3 0 0 0-23.24 11.74c-.13-.07-.26-.11-.39-.17a12.75 12.75 0 0 0-2.61-.98 14.56 14.56 0 0 0-1.72-.36l-.5-.08a15.05 15.05 0 0 0-16.66 15.61A23.19 23.19 0 0 0 0 68.48C0 80.35 9.6 90 21.41 90h40.85l.51-.02h.33l.52.02h16.33c5.39 0 2.06-9.41 3.11-18.84 1.1-9.9 6.34-19.86 1.9-21.04C84.08 35.05 71.71 23 56.81 23zm6.81 63.65l-.29-.02-.46-.01-.33.01-.28.02H21.41A18.14 18.14 0 0 1 3.33 68.48c0-6.95 4.51-14.18 10.73-17.17l.94-.45V49.8l.03-.65.01-.26-.02-.36a11.72 11.72 0 0 1 13.56-11.96 11.5 11.5 0 0 1 2.89.88l.35.17a11.74 11.74 0 0 1 6.51 10.51 1.67 1.67 0 0 0 3.34 0c0-4.62-2.08-8.75-5.34-11.51a26.34 26.34 0 0 1 20.48-10.27c12.91 0 23.63 10.28 24.75 23.26a31.79 31.79 0 0 0-6.81.21 1.67 1.67 0 1 0 .5 3.31c3.71-.56 7.58-.03 7.81 0 4.08.78-1.16 9.56-2.02 18.15-.77 7.72 3.28 15.37-1.09 15.37zM250.49 34a19.4 19.4 0 0 0-15.34 7.71l-.25-.11a9.63 9.63 0 0 0-.66-.3l-.38-.14a8.84 8.84 0 0 0-.68-.21l-.38-.1a17.17 17.17 0 0 0-1.09-.18 9.91 9.91 0 0 0-10.99 10.24v.01A15.2 15.2 0 0 0 213 63.87c0 7.79 6.34 14.13 14.13 14.13h26.96l.34-.02h.22l.34.02h10.78c7.29 0 13.23-5.94 13.23-13.23 0-6.04-4.21-11.45-9.93-12.96-.58-9.9-8.74-17.81-18.58-17.81zm4.5 41.8l-.2-.01-.29-.01-.22.01-.19.01h-26.96a11.94 11.94 0 0 1-11.93-11.93c0-4.57 2.98-9.31 7.08-11.28l.62-.3v-.69l.02-.42.01-.18-.02-.23-.01-.27a7.72 7.72 0 0 1 8.71-7.63l.25.04c.3.05.59.12.87.2l.12.03c.31.09.62.21.92.35l.23.11a7.68 7.68 0 0 1 4.3 6.9c0 .61.49 1.1 1.1 1.1.61 0 1.1-.49 1.1-1.1a9.88 9.88 0 0 0-3.52-7.56 17.44 17.44 0 0 1 13.51-6.74c8.52 0 15.6 6.75 16.34 15.28a21.4 21.4 0 0 0-4.5.13 1.1 1.1 0 0 0-.92 1.26c.09.54.55.93 1.09.93l.16-.01a19.8 19.8 0 0 1 5.16 0c5.12.97 8.98 5.69 8.98 10.98 0 6.08-4.95 11.03-11.03 11.03zM198.18 0c-2.9 0-5.7 1.4-7.44 3.68l-.12-.05-.32-.15-.19-.06-.33-.1-.18-.05a2.2 2.2 0 0 0-.37-.06l-.16-.03a4.77 4.77 0 0 0-5.34 4.7l.01.19v.01a7.23 7.23 0 0 0-3.74 6.18 6.8 6.8 0 0 0 6.85 6.74h13.07l.17-.01h.1l.17.01h5.23a6.37 6.37 0 0 0 6.41-6.31 6.48 6.48 0 0 0-4.81-6.19 9.07 9.07 0 0 0-9.01-8.5zm2.18 19.95h-.1l-.14-.01-.11.01h-13.16a5.74 5.74 0 0 1-5.78-5.69 6.24 6.24 0 0 1 3.43-5.39l.3-.14V8.4l.01-.2V8l-.01-.12a3.71 3.71 0 0 1 4.22-3.64l.13.01.42.1.05.01c.16.05.3.1.45.17l.11.05.38.21a3.68 3.68 0 0 1 1.71 3.09c0 .29.24.52.53.52.29 0 .53-.23.53-.52 0-1.45-.66-2.74-1.7-3.61a8.48 8.48 0 0 1 6.55-3.22 8 8 0 0 1 7.92 7.29 9.78 9.78 0 0 0-2.18.07.53.53 0 0 0-.45.59c.04.26.27.45.53.45l.08-.01c1.19-.17 2.43-.01 2.5 0a5.41 5.41 0 0 1 4.35 5.25c0 2.9-2.4 5.26-5.34 5.26z"/><path fill="#fff" d="M214.5 83.95v-.06C214.5 45.9 183.66 15 145.75 15c-37.9 0-68.74 30.9-68.74 68.89l.01.21c-.09.77.13 1.56.69 2.18l65.21 72.71v3.8a2.8 2.8 0 0 0 5.58 0v-3.65l65.3-72.86c.56-.62.78-1.41.69-2.18l.01-.15zM96.29 79.73c5.26 0 10.2 2 13.99 5.62l25.67 59.35-52.5-60.38a20.08 20.08 0 0 1 12.84-4.59zm19.78 4.9a20.05 20.05 0 0 1 13.19-4.9c5.14 0 9.96 1.89 13.7 5.34v61.65zm65.16.72a20.13 20.13 0 0 1 13.99-5.62c4.75 0 9.23 1.62 12.84 4.59l-52.5 60.43zm-32.69-.27a20.06 20.06 0 0 1 13.7-5.35c4.91 0 9.53 1.73 13.2 4.9l-26.9 62.14zm30.19-4.99a25.54 25.54 0 0 0-16.49-5.95c-6.1 0-11.86 2.09-16.49 5.95a25.53 25.53 0 0 0-16.48-5.95 25.54 25.54 0 0 0-16.49 5.95 25.58 25.58 0 0 0-16.49-5.95c-4.82 0-9.42 1.3-13.42 3.75 3.03-32.1 30.08-57.3 62.88-57.3 32.81 0 59.85 25.2 62.88 57.3a25.53 25.53 0 0 0-13.41-3.75c-6.1 0-11.86 2.09-16.49 5.95z"/></svg>