<svg xmlns="http://www.w3.org/2000/svg" width="203" height="205" viewBox="0 0 203 205"><g fill="#379BD4" fill-rule="evenodd"><path d="M186.824 164.755h-49.898c-4.455 0-8.075 3.64-8.075 8.12v34.294c0 4.479 3.62 8.12 8.075 8.12h49.884c4.454 0 8.075-3.641 8.075-8.12v-34.28c.013-4.48-3.607-8.134-8.061-8.134zm4.385 42.414c0 2.432-1.967 4.41-4.385 4.41h-49.898c-2.419 0-4.386-1.978-4.386-4.41v-34.28c0-2.433 1.967-4.411 4.386-4.411h49.884c2.418 0 4.386 1.978 4.386 4.41v34.28h.013z"/><path d="M170.594 189.18l16.15-14.563c.751-.687.82-1.855.136-2.625a1.846 1.846 0 0 0-2.61-.137L162 191.956l-4.345-3.902c-.014-.014-.028-.027-.028-.041a2.737 2.737 0 0 0-.3-.261l-17.68-15.91a1.835 1.835 0 0 0-2.61.15 1.86 1.86 0 0 0 .15 2.625l16.341 14.687-16.272 15.32a1.87 1.87 0 0 0-.082 2.624c.368.385.86.591 1.352.591.451 0 .902-.165 1.257-.494l16.519-15.54 4.482 4.026a1.836 1.836 0 0 0 2.459-.014l4.604-4.15 16.423 15.691a1.844 1.844 0 0 0 2.611-.068 1.87 1.87 0 0 0-.07-2.625l-16.217-15.484zM62.612 9.35c-9.975 0-19.633 4.916-25.618 12.937-.138-.072-.283-.122-.422-.188a17.082 17.082 0 0 0-1.11-.497c-.21-.083-.419-.158-.63-.232a16.584 16.584 0 0 0-1.137-.353c-.211-.057-.42-.116-.634-.164a17.494 17.494 0 0 0-1.262-.23c-.185-.029-.367-.065-.555-.086a16.7 16.7 0 0 0-1.853-.11c-9.117 0-16.532 7.452-16.532 16.615 0 .234.014.465.029.696C5.248 41.932 0 50.7 0 59.479c0 13.076 10.584 23.716 23.595 23.716h45.02c.191 0 .38-.012.571-.026h.36c.188.014.375.026.568.026h18.007c5.943 0 2.267-10.37 3.42-20.76 1.213-10.911 6.989-21.897 2.099-23.19C92.668 22.632 79.04 9.35 62.612 9.35zm7.502 70.152c-.108 0-.213-.009-.32-.016l-.497-.02-.364.02c-.105.007-.211.016-.318.016h-45.02c-10.984 0-19.921-8.981-19.921-20.023 0-7.669 4.969-15.629 11.817-18.928l1.041-.5v-1.163c0-.235.015-.473.028-.713l.017-.295-.023-.388a6.11 6.11 0 0 1-.022-.45c0-7.125 5.77-12.923 12.859-12.923a12.786 12.786 0 0 1 2.112.19 12.47 12.47 0 0 1 3.178.969c.13.06.258.124.386.187.441.22.873.46 1.29.73 3.54 2.305 5.893 6.301 5.893 10.847a1.84 1.84 0 0 0 1.836 1.846 1.84 1.84 0 0 0 1.837-1.846c0-5.085-2.288-9.635-5.878-12.685 5.267-6.923 13.939-11.315 22.567-11.315 14.227 0 26.042 11.326 27.275 25.639-1.878-.133-4.688-.201-7.5.229a1.845 1.845 0 0 0-1.54 2.103 1.84 1.84 0 0 0 2.09 1.547c4.092-.623 9.35.687 9.599.722 4.502.86-2.268 9.813-3.217 19.275-.853 8.512 3.612 16.945-1.198 16.945H70.114z"/><path d="M237.402 76.694c.004-.057.007-.113.008-.17l.003-.04v-.023c0-41.867-33.99-75.929-75.769-75.929-41.78 0-75.77 34.062-75.77 75.929 0 .078.007.155.012.233a3.065 3.065 0 0 0 .757 2.402l71.88 80.138v4.183a3.078 3.078 0 0 0 3.076 3.082 3.078 3.078 0 0 0 3.076-3.082v-4.022l71.97-80.3a3.064 3.064 0 0 0 .757-2.401zm-130.278-4.817a22.125 22.125 0 0 1 15.42 6.197l28.293 65.414-57.858-66.55c3.979-3.277 8.915-5.06 14.145-5.06zm21.802 5.4c4.045-3.493 9.138-5.4 14.545-5.4 5.655 0 10.97 2.084 15.098 5.889v67.946l-29.643-68.435zm71.82.797a22.124 22.124 0 0 1 15.42-6.197c5.23 0 10.166 1.784 14.146 5.063l-57.862 66.602 28.296-65.468zm-36.026-.307c4.128-3.806 9.443-5.89 15.098-5.89 5.406 0 10.5 1.908 14.545 5.4l-29.643 68.49v-68zm33.272-5.495c-5.097-4.25-11.447-6.559-18.174-6.559-6.726 0-13.077 2.31-18.173 6.559-5.097-4.25-11.447-6.559-18.174-6.559-6.726 0-13.077 2.31-18.173 6.559-5.097-4.25-11.447-6.559-18.174-6.559-5.305 0-10.376 1.438-14.782 4.129 3.337-35.375 33.142-63.146 69.302-63.146 36.16 0 65.966 27.771 69.303 63.146-4.406-2.691-9.477-4.129-14.782-4.129-6.726 0-13.077 2.31-18.173 6.559z"/></g></svg>