<svg xmlns="http://www.w3.org/2000/svg" width="64" height="78" viewBox="0 0 64 78"><defs><linearGradient id="a" x1="404.5" x2="404.5" y1="3037" y2="2960" gradientUnits="userSpaceOnUse"><stop offset="0" stop-color="#467bbf"/><stop offset=".51" stop-color="#005ca1"/><stop offset="1" stop-color="#0f2d5d"/></linearGradient></defs><path fill="url(#a)" d="M403.59 3030.88c3.42.26 6.31 3.33 9.47 4.99l.18-3.71c.14-2.74-.26-2.71-1.89-4.55l-2.58-2.91c-1.55-1.75-1.57-1.38-1.34-3.99.36-4 1.34-12.53 1.75-18.82.09-1.52 1.09-.99 2.72.18l22.71 16.33 1.13-2.97c.84-2.2.1-2.67-.68-3.53l-6.96-7.83.3-5.88c.07-1.38-.77-2.58-1.86-2.66-1.09-.09-2.04.97-2.11 2.36l-.1 1.93-4.78-5.38.27-5.43c.07-1.39-.77-2.59-1.86-2.67-1.09-.08-2.04.98-2.11 2.36l-.07 1.49-4.11-5.07c-1.53-1.9-1.83-1.87-1.69-4.53.34-6.72.89-21.3-2.79-21.59-3.64-.28-4.58 14.29-4.92 21.09-.13 2.67-.54 2.62-2.25 4.26l-4.46 4.28.08-1.49c.07-1.38-.77-2.58-1.86-2.67-1.09-.08-2.04.98-2.11 2.37l-.27 5.42-5.29 4.61.1-1.93c.07-1.39-.77-2.59-1.86-2.67-1.09-.09-2.04.98-2.11 2.36l-.3 5.87-7.78 7.4c-.7.66-1.56 1.19-.95 3.51l.81 3.08c8.09-4.2 15.9-9.03 23.93-13.37 1.73-.93 2.95-1.43 2.9.14-.21 6.28-.01 14.75-.05 18.82-.03 2.83-.09 2.43-1.96 4.07l-2.82 2.47c-1.83 1.6-2.01 1.5-2.15 4.29l-.17 3.47c3.3-1.17 6.48-3.76 9.89-3.5" transform="translate(-373 -2958)"/></svg>