<svg xmlns="http://www.w3.org/2000/svg" width="43" height="68" viewBox="0 0 43 68"><defs><linearGradient id="a" x1="792.5" x2="792.5" y1="3039" y2="2972" gradientUnits="userSpaceOnUse"><stop offset="0" stop-color="#467bbf"/><stop offset=".51" stop-color="#005ca1"/><stop offset="1" stop-color="#0f2d5d"/></linearGradient></defs><path fill="url(#a)" d="M774.8 3024.82l-3.73 10.93s17.98 3.72 21.2 3.72c3.21 0 21.19-3.72 21.19-3.72l-3.73-10.93zm17.47 13.89l-2.14-.49v-12.41h4.28v12.35zm-20.62-4.25l3.21-8.65h1.07l-1.63 9.22zm4.75 1l1.72-9.64 3.15-.01-.57 10.54zm6.77 1.47l.41-11.12h4.22v12.08zm26.47-11.12l3.21 8.65-2.65.57-1.63-9.22zm-3.27.01l1.73 9.64-4.3.89-.58-10.54zm-5.45-.01l.4 11.12-4.62.96v-12.08zm5.13-27.91a14.2 14.2 0 0 0-4.67-10.57h-.58a.6.6 0 0 0 .05-.24v-.29a.6.6 0 0 0-.6-.6h-16.7a.6.6 0 0 0-.6.6v.29c0 .12.04.24.1.34a14.2 14.2 0 0 0-4.56 10.47c0 7.79 6.17 14.11 13.78 14.11 7.61 0 13.78-6.32 13.78-14.11zm-6.58-.1a7.5 7.5 0 1 1-15 0 7.5 7.5 0 0 1 15 0zm2.93 17.41v-2.62h2.87v-4.6l.52.81c-.3.43-.44.96-.44 1.53a2.58 2.58 0 0 0 2.56 2.61 2.68 2.68 0 0 0 2.67-2.61c0-1.39-.78-2.52-2.27-2.6v-1.36h-3.04v-.12h-1.3a14.43 14.43 0 0 1-11.7 6.04c-4.8 0-9.05-2.38-11.7-6.04h-.88l.17 6.6h2.45v2.41h-9.16c-2.15 0-2.15 2.32-2.15 2.32v4.05s0 2.63 2.15 2.63h38.08s2.31.01 2.31-2.3v-4.38c0-2.32-2.31-2.32-2.31-2.32zm-16.08-17.39a5.65 5.65 0 0 0 5.62 5.69c3.1 0 5.62-2.55 5.62-5.69a5.65 5.65 0 0 0-5.62-5.69 5.65 5.65 0 0 0-5.62 5.69zm2.22 0c0-1.9 1.52-3.45 3.4-3.45 1.87 0 3.4 1.55 3.4 3.45a3.43 3.43 0 0 1-3.4 3.44 3.42 3.42 0 0 1-3.4-3.44zm-13.05 8.55v1.24c-.74.07-2.08 1.21-2.08 2.6 0 1.44 1.3 2.61 2.7 2.61a2.65 2.65 0 0 0 2.63-2.61c0-.58-.27-1.1-.57-1.53l1.05-1.91v-.4zm21.98-22.37h-1.84l.04-1.4 5.03-10.04v-.05a.52.52 0 0 0-.56-.51h-15.53s-.56 0-.56.49v.03l4.75 10.08v1.44h-1.52v.56h-4.02v.4h18.19v-.41h-3.98z" transform="translate(-771 -2972)"/></svg>