<svg xmlns="http://www.w3.org/2000/svg" width="112" height="44" viewBox="0 0 112 44"><defs><linearGradient id="a" x1="1227" x2="1227" y1="3038" y2="2995" gradientUnits="userSpaceOnUse"><stop offset="0" stop-color="#467bbf"/><stop offset=".51" stop-color="#005ca1"/><stop offset="1" stop-color="#0f2d5d"/></linearGradient></defs><path fill="url(#a)" d="M1261.97 3019.45a4.58 4.58 0 0 1 4.85 4.3 4.57 4.57 0 0 1-4.34 4.8 4.6 4.6 0 0 1-4.86-4.3 4.58 4.58 0 0 1 4.35-4.8zm-70.09 3.85a4.58 4.58 0 0 0-4.35 4.8 4.59 4.59 0 0 0 4.86 4.3 4.58 4.58 0 0 0 4.35-4.8 4.59 4.59 0 0 0-4.86-4.3zm9.46 4.04a9.16 9.16 0 0 1-8.69 9.61 9.18 9.18 0 0 1-9.72-8.6 9.15 9.15 0 0 1 8.7-9.6 9.18 9.18 0 0 1 9.71 8.59zm-23.85-14.2c1.13-.37 6.34-3.91 5.54-4.64-.86-.78-5.63-.29-7.25.65-1.62.95-1.72 3.26-1.32 3.69.41.43 1.89.66 3.03.3zm97.72-4.5c-.69-.3-5 .32-5.37.62-.36.29 1.24 1.31 2.23 1.78s5.59 1.58 6.21 1.37c.62-.21-2.38-3.47-3.07-3.77zm-79.69-4.48c.88-1.6 2.49-4.38 4.26-6.73.2-.27.09-.46-.28-.42-5.25.49-9.35 1.35-10.84 1.61-.52.09-.64.14-1.07.43l-.83.57c-.24.17-.31.41.01.61 1.32.81 4.43 2.79 7.27 4.18.71.34 1.19.28 1.48-.25zm22.39 1.22c-.19-1.94-.62-5.16-1.16-9.03-.07-.52-.27-.73-.87-.71-4.31.16-8.8.5-12.85.95-.64.07-.92.18-1.26.78-.9 1.61-2.54 4.49-3.94 7.68-.24.55-.07.81.48.85 2.19.15 9.88.3 18.74.37.72.01.92-.26.86-.89zm1.66-8.95c.59 1.87 1.56 5.41 2.39 9.04.14.6.33.83.94.83 9.66.08 19.6.05 24.75.05 1.38 0 2.52-.48.41-1.98-4.12-2.92-12.79-7.52-22.74-8.5a72.5 72.5 0 0 0-4.85-.26c-.88-.02-1.12.11-.9.82zm53.71 27.65l-.01-.69a11.01 11.01 0 0 0-11.66-10.31 10.97 10.97 0 0 0-10.37 12.19l-48.04 2.59-.02-.62a11.01 11.01 0 0 0-11.66-10.31 10.98 10.98 0 0 0-10.43 11.53l.05.59-.24.01s-7.11-1.48-7.97-2.29c-.86-.8-2.24-5.32-1.87-6.89.37-1.58 1.78-3.68 1.91-4.2.12-.51-.28-3.96.2-5.4.48-1.44 9.81-10.73 9.81-10.73l-.99-.87.77-1.22s32.5-4.45 42.41-3.26c9.31 1.12 21.24 5.94 27.67 9.01 8.91.79 20.31 2.57 22.34 3.91 2.03 1.33 4.5 5 4.5 5s1.14 1.02 1.54 2.66c.39 1.64.19 4.42-.88 6.09-1.08 1.67-6.65 3.19-6.65 3.19zm-11.57-9.18a9.15 9.15 0 0 0-8.69 9.6 9.18 9.18 0 0 0 9.71 8.6 9.16 9.16 0 0 0 8.7-9.61 9.2 9.2 0 0 0-9.72-8.59z" transform="translate(-1170 -2993)"/></svg>