<svg xmlns="http://www.w3.org/2000/svg" width="1939.84" height="315.52" viewBox="0 0 1939.84 315.52"><path fill="none" stroke="#fff" stroke-miterlimit="50" d="M.42 213.87l23.26-31.25 5.86-33 9.38-1 5.86-29.11 3.82-14.16 4.17 18.02 7.94-21.8 4.17-28.08L69 108.48l4.13 39.93 7.98 15.93L95.7 188.3l17.7-34.64 31.86 58.94 12.67 36.96 13.85-23.22 74.28-1.31 11.72-20.1 7.64-12.06 15.62 20.44 13.5 42.32 32.99-37.11 13.42-20.06 6.86 10.34 9.72-30.47 12.1-62.73 7.22 12.5 1.04-47.1 30.82 121.88 12.15-23.53 25.27-8.33 30.16 19.79 17.32-29.12 16.32-25.27 11.8 25 3.13 13.16 14.2-15.93 8.9-36.73 27.73-46.87 34.03 41.28 18.7 41.66 5.9-19.9 2.9-29.1 3.42-44.53 9.3 6.85 3.25 42.47 7.93 21.67 2.2 44.9 3.17-17.15 6.14-17.78 4.28 12.98 1.95 18.86 5.86-16.52 7.53-13.31 5.82 1.34 5 10.75 8.93 4.16L727.76 6.26l3.4 99.04 6.29-20.47 3.67 36.28 10.17 1.17 5.56 29.9 7.78 9 3.75-25.47 8.56 20.12 3.04-4.03 3.6 5.15 17.66 6.23 4.8 17.35 11.63 7.47 4.54-4.16 23.15 2.34 12.93 3.43 9.83 9.66 5.48 29.79 7.24 5.79 4.28-4.78 9.58 4.05 2.58-4.14 12.98 5.28h20.53l6.83-6.34 8.33 4.88 8.47-8 8.28-9.04.64-9.27h7.02l3.47 10.79 4.67 5.65 7.76-2.8 3.25-20.2h6.68l2.6 7.1 2.73-8.06h6.47l1.22-16.23 4.13-8.42 10.64 18.26 4.28-10.65h7.87l6.76-36.75 9.7 6.39 3.25-10.01 6.48-7.71 11.05 8.49 7.14-64.54 9.1 9.79 3.77 36.25 4.9-9.64 4.05 7.35 6.2-3.3 7.79 9.44 7.76 2.8 5.97 19.7 3.12-15.7 6.47-3.54 1.16 12.14 14.3 11.28 3.79 16.64 5.95-3.42 2.2-10.52 9.54 11.08 6.62-.5 5.69 4.03 5.63-15.32 4.8 10.17 7.9-.74 3.23 2.8 6.37.99 3.12 3.3 4-1.1 7.75 3.3 2.85 6.35 2.58 5.36 10.77.32 5.06 1.83 12.6.37 4.66.98 6.37 2.7 6.57 1.48 7.79 1.09 8.04-3.5 3.5-1 5.84.63 15.07 21.25 2.08-29.48 13.89-25.7 9.72-34.71 12.16-35.03 6.25 31.56 9.02 26.34 2.09 11.38 12.33 4.82 5.2 5.9 9.38 1 6.95-18.75 7.25 15.54 2.08 64.24 13.2-36.46 3.04-10h7.86l6.17 9.3 11.76-.7 10.33-3.11 7.29 15.58 11.46 7.25 11.42-4.86 28.12-36.38 14.2 15.54 21.14 4.87s19.75 7.98 19.75 1.04 6.25-46.18 6.25-46.18l37.5-60.07 9.98 68.32 8.68 29.86 13.55 12.5 35.27-21.32 47.53 22.53 13.46-3.1 9.03-6.93h7.25l8.29 8.29 9.68 8.64 5.2 30.17 6.95 73.22 14.28-137.72 9.25 7.29 6.2 13.4 32.6-4.85 5.2-9.33 7.26 12.46 5.9 8.33 6.2-4.17 2.79-20.48 20.84-33.3 14.19 27.78 8.33 14.89"/></svg>